<?xml version="1.0" encoding="UTF-8"?>
<svg id="Layer_1" data-name="Layer 1" xmlns="http://www.w3.org/2000/svg" viewBox="0 0 89.62 92.19">
  <defs>
    <style>
      .cls-1 {
        fill: #3e3e3e;
      }
    </style>
  </defs>
  <path class="cls-1" d="m85.82,90.93c-.7.86-1.78,1.33-2.89,1.25h0C29.91,88.47,2.01,61.04,0,10.65H0C-.17,6.23,3.01,2.32,7.4,1.57,11.73.83,17.94.44,25.61.01c3.83-.23,7.27,2.36,8.11,6.14l3.22,14.5c.58,2.62-.2,5.32-2.1,7.22l-5.32,5.32c-.34.34-.43.87-.23,1.36,4.4,10.68,12.19,19.17,23.15,25.26.59.33,1.34.14,1.61-.26l5.15-7.73c1.8-2.69,5.02-4.09,8.19-3.6l14.72,2.33c3.85.61,6.76,3.88,6.92,7.79.7,18.15.39,28.18-3.21,32.58h0ZM6.85,10.38c1.84,46.28,26.18,70.77,74.38,74.81,1.78-5.27,1.22-19.94.96-26.58-.02-.65-.51-1.19-1.15-1.29l-14.72-2.32c-.57-.09-1.12.16-1.43.64l-5.15,7.72c-2.28,3.42-6.94,4.5-10.63,2.45-12.35-6.86-21.15-16.5-26.15-28.64-1.26-3.05-.59-6.51,1.71-8.81l5.32-5.32c.24-.24.34-.57.26-.9l-3.22-14.5c-.11-.48-.56-.82-1.04-.79-5.86.33-13.15.74-17.44,1.47-1.01.17-1.74,1.06-1.7,2.06h0Z"/>
  <path class="cls-1" d="m70.45,35.16c-1.73,0-3.22-1.29-3.4-3.01-.31-3.03-1.19-6.21-3.31-8.03-1.39-1.19-3.3-1.78-5.73-1.78-1.66,0-3.07-1.25-3.32-2.89h0c-.33-2.09,1.31-3.96,3.43-3.95,4.05.02,7.43,1.16,10.07,3.43,3.2,2.74,5.1,6.94,5.67,12.5.2,2-1.4,3.73-3.41,3.73h0Z"/>
  <path class="cls-1" d="m82.81,39.03c-2.66-19.54-12.33-29.4-29.38-30.09-1.82-.07-3.29-1.51-3.34-3.33h0c-.05-1.98,1.59-3.59,3.57-3.51,15.13.6,32.07,7.89,35.92,36,.27,1.94-1.12,3.73-3.07,3.91h0c-1.83.17-3.45-1.15-3.7-2.97Z"/>
</svg>