<?xml version="1.0" encoding="UTF-8"?>
<svg id="Layer_1" data-name="Layer 1" xmlns="http://www.w3.org/2000/svg" viewBox="0 0 94.84 94.81">
  <path d="m84.12,17.55C76.02,7.69,65.54,2,52.85.44c-.92-.11-1.84-.29-2.76-.44h-5.19c-.74.13-1.48.27-2.23.37C22.56,3.09,8.94,14.02,2.36,33.16c-6.06,17.63-.12,37.88,14.02,50.02,7.77,6.67,16.72,10.5,26.92,11.42.39.04.78.14,1.16.21h6.06c.71-.11,1.42-.22,2.13-.31,16.21-2.11,28.47-10.21,36.37-24.51,9.29-16.8,7.28-37.6-4.9-52.44Zm-36.69,70.49c-22.34,0-40.57-18.22-40.59-40.56-.02-22.33,18.18-40.54,40.56-40.59,22.38-.05,40.64,18.21,40.61,40.62-.04,22.4-18.19,40.54-40.58,40.54Z"/>
  <path d="m53.89,60.99c-.96-.01-1.93,0-3.04,0v-1.38c0-5.95,0-11.9,0-17.85,0-.43,0-.87-.06-1.29-.23-1.94-1.41-3.07-3.37-3.11-2.23-.05-4.47-.08-6.7.03-.77.04-1.64.36-2.26.83-1.1.84-1.36,2.08-.99,3.41.37,1.35,1.29,2.21,2.66,2.35,1.24.13,2.51.03,3.88.03v16.98c-1.06,0-2.06-.01-3.06,0-2.15.04-3.6,1.39-3.61,3.34-.01,2,1.46,3.4,3.65,3.41,4.29.02,8.58.02,12.87,0,2.19,0,3.74-1.42,3.75-3.36,0-1.93-1.55-3.36-3.72-3.39Z"/>
  <path d="m45.75,33.91c2.81,0,5.1-2.31,5.07-5.11-.03-2.83-2.31-5.02-5.17-4.98-2.78.04-4.97,2.29-4.94,5.09.03,2.78,2.28,5,5.04,5Z"/>
</svg>