<?xml version="1.0" encoding="UTF-8"?>
<svg width="300px" height="123px" viewBox="0 0 300 123" version="1.1" xmlns="http://www.w3.org/2000/svg" xmlns:xlink="http://www.w3.org/1999/xlink">
    <!-- Generator: Sketch 61 (89581) - https://sketch.com -->
    <title>Combined Shape</title>
    <desc>Created with Sketch.</desc>
    <g stroke="none" stroke-width="1" fill="none" fill-rule="evenodd">
        <g transform="translate(0.000000, 7.000000)" fill="#FFFFFF">
            <path d="M58.9461,58.545 C69.7161,58.545 77.7331,66.157 77.7331,78.141 C77.7331,79.032 77.7331,80.246 77.6521,81.056 L77.6521,81.056 L46.9631,81.056 C47.8531,87.372 52.7931,91.34 59.1901,91.34 C63.7241,91.34 67.9351,89.235 70.0401,85.51 C71.9841,86.32 74.3321,87.129 76.3561,87.939 C73.1171,94.578 66.2351,97.98 58.9461,97.98 C48.1771,97.98 39.5931,90.125 39.5931,78.141 C39.5931,66.157 48.1771,58.545 58.9461,58.545 Z M100.3218,58.545 C111.0908,58.545 120.1608,66.157 120.1608,78.141 C120.1608,90.125 111.0908,97.98 100.3218,97.98 C89.5518,97.98 80.5638,90.125 80.5638,78.141 C80.5638,66.157 89.5518,58.545 100.3218,58.545 Z M22.269,41.3782 C34.091,41.3782 38.868,50.1232 38.868,58.8682 C38.868,67.6942 34.091,76.2782 22.269,76.2782 L22.269,76.2782 L7.612,76.2782 L7.612,97.1702 L0,97.1702 L0,41.3782 Z M100.3218,65.751 C93.5198,65.751 87.8518,70.53 87.8518,78.141 C87.8518,85.833 93.5198,90.854 100.3218,90.854 C107.1238,90.854 112.7918,85.833 112.7918,78.141 C112.7918,70.53 107.1238,65.751 100.3218,65.751 Z M58.9461,65.185 C52.7121,65.185 47.8531,68.991 46.9631,75.307 L46.9631,75.307 L70.4451,75.307 C69.5541,68.991 65.0201,65.185 58.9461,65.185 Z M22.188,48.4232 L7.612,48.4232 L7.612,69.2342 L21.783,69.2342 C28.585,69.2342 31.338,64.0512 31.338,58.8682 C31.338,53.7672 28.666,48.4232 22.188,48.4232 L22.188,48.4232 Z M3.2414307,25 L2.84217094e-14,25 L12.3822653,-6 L16.6177347,-6 L29,25 L25.7585693,25 C25.384004,25 25.0814704,24.9062573 24.8509687,24.7187718 C24.620467,24.5312863 24.4475907,24.293324 24.3323398,24.0048849 L21.4366617,16.5198883 L7.54172876,16.5198883 L4.64605067,24.0048849 C4.55961252,24.2644801 4.39393939,24.4952314 4.1490313,24.6971389 C3.9041232,24.8990463 3.60158967,25 3.2414307,25 Z M21,14 L15.953271,0.990237099 C15.8037383,0.60344026 15.646729,0.153417015 15.482243,-0.359832636 C15.317757,-0.873082287 15.1607477,-1.41980474 15.011215,-2 C14.6971963,-0.794979079 14.3757009,0.209205021 14.046729,1.0125523 L9,14 L21,14 Z M38.0044743,33 L34,33 L34,3.3930131 L36.393736,3.3930131 C36.9604773,3.3930131 37.310962,3.66229985 37.4451902,4.20087336 L37.803132,6.8209607 C38.7576435,5.67103348 39.8612975,4.74672489 41.114094,4.04803493 C42.3668904,3.34934498 43.7986577,3 45.409396,3 C46.7218494,3 47.9075317,3.24381368 48.966443,3.73144105 C50.0253542,4.21906841 50.9276659,4.93959243 51.6733781,5.8930131 C52.4190902,6.84643377 52.9932886,8.02911208 53.3959732,9.44104803 C53.7986577,10.852984 54,12.4759825 54,14.3100437 C54,15.9403202 53.7762864,17.4577875 53.3288591,18.8624454 C52.8814318,20.2671033 52.2363908,21.4825328 51.393736,22.5087336 C50.5510813,23.5349345 49.5219985,24.3427948 48.3064877,24.9323144 C47.0909769,25.5218341 45.7225951,25.8165939 44.2013423,25.8165939 C42.8143177,25.8165939 41.6249068,25.5873362 40.6331096,25.128821 C39.6413125,24.6703057 38.7651007,24.0334789 38.0044743,23.2183406 L38.0044743,33 Z M43.3559322,23 C45.4952919,23 47.1374765,22.2498908 48.2824859,20.7496723 C49.4274953,19.2494539 50,17.1105286 50,14.3328965 C50,12.8623853 49.8681733,11.5998253 49.6045198,10.5452163 C49.3408663,9.49060725 48.960452,8.62538226 48.4632768,7.94954128 C47.9661017,7.27370031 47.3559322,6.77981651 46.6327684,6.46788991 C45.9096045,6.1559633 45.0885122,6 44.1694915,6 C42.8587571,6 41.7099812,6.29707296 40.7231638,6.89121887 C39.7363465,7.48536479 38.8286252,8.32459589 38,9.40891219 L38,20.3263434 C38.7382298,21.3066841 39.5442561,21.9973788 40.4180791,22.3984273 C41.2919021,22.7994758 42.2711864,23 43.3559322,23 Z M65,25 L61,25 L61,-7 L65,-7 L65,25 Z M75.9527559,-1 C75.5433071,-1 75.1614173,-1.07874016 74.8070866,-1.23622047 C74.4527559,-1.39370079 74.1417323,-1.61023622 73.8740157,-1.88582677 C73.6062992,-2.16141732 73.3937008,-2.47637795 73.2362205,-2.83070866 C73.0787402,-3.18503937 73,-3.56692913 73,-3.97637795 C73,-4.38582677 73.0787402,-4.77559055 73.2362205,-5.14566929 C73.3937008,-5.51574803 73.6062992,-5.83858268 73.8740157,-6.11417323 C74.1417323,-6.38976378 74.4527559,-6.60629921 74.8070866,-6.76377953 C75.1614173,-6.92125984 75.5433071,-7 75.9527559,-7 C76.3622047,-7 76.7519685,-6.92125984 77.1220472,-6.76377953 C77.492126,-6.60629921 77.8149606,-6.38976378 78.0905512,-6.11417323 C78.3661417,-5.83858268 78.5866142,-5.51574803 78.7519685,-5.14566929 C78.9173228,-4.77559055 79,-4.38582677 79,-3.97637795 C79,-3.56692913 78.9173228,-3.18503937 78.7519685,-2.83070866 C78.5866142,-2.47637795 78.3661417,-2.16141732 78.0905512,-1.88582677 C77.8149606,-1.61023622 77.492126,-1.39370079 77.1220472,-1.23622047 C76.7519685,-1.07874016 76.3622047,-1 75.9527559,-1 Z M78,25 L74,25 L74,3 L78,3 L78,25 Z M89.9363426,25 L86,25 L86,-7 L89.9363426,-7 L89.9363426,11.8350305 L90.9479167,11.8350305 C91.2411265,11.8350305 91.4866898,11.7952025 91.6846065,11.7155465 C91.8825231,11.6358905 92.0914352,11.4729577 92.3113426,11.2267481 L99.3483796,3.77528853 C99.5536265,3.52907898 99.7698688,3.33718036 99.9971065,3.19959267 C100.224344,3.06200498 100.528549,2.99321113 100.909722,2.99321113 L104.450231,2.99321113 L96.2476852,11.6177868 C95.8518519,12.1102059 95.4266975,12.4940032 94.9722222,12.7691785 C95.2361111,12.9429735 95.4743441,13.1421136 95.6869213,13.3665988 C95.8994985,13.591084 96.1010802,13.8481557 96.2916667,14.137814 L105,25 L101.503472,25 C101.166281,25 100.876736,24.9456891 100.634838,24.8370672 C100.39294,24.7284453 100.184028,24.5293053 100.008102,24.239647 L92.6851852,15.2240326 C92.4652778,14.9198914 92.2490355,14.7207513 92.0364583,14.6266124 C91.8238812,14.5324734 91.4976852,14.4854039 91.0578704,14.4854039 L89.9363426,14.4854039 L89.9363426,25 Z M115.06383,26 C114.22695,26 113.439716,25.8791786 112.702128,25.6375358 C111.964539,25.395893 111.322695,25.0334288 110.776596,24.5501433 C110.230496,24.0668577 109.797872,23.4554282 109.478723,22.7158548 C109.159574,21.9762814 109,21.1012416 109,20.0907354 C109,19.2120344 109.234043,18.3662846 109.702128,17.5534862 C110.170213,16.7406877 110.929078,16.0194206 111.978723,15.3896848 C113.028369,14.7599491 114.397163,14.2437122 116.085106,13.8409742 C117.77305,13.4382362 119.843972,13.2075772 122.297872,13.1489971 L122.297872,11.4135626 C122.297872,9.68545049 121.93617,8.37838268 121.212766,7.49235912 C120.489362,6.60633556 119.432624,6.16332378 118.042553,6.16332378 C117.106383,6.16332378 116.322695,6.28414518 115.691489,6.52578797 C115.060284,6.76743075 114.514184,7.03836358 114.053191,7.33858644 C113.592199,7.6388093 113.195035,7.90974212 112.861702,8.15138491 C112.528369,8.3930277 112.198582,8.51384909 111.87234,8.51384909 C111.617021,8.51384909 111.397163,8.44428526 111.212766,8.30515759 C111.028369,8.16602993 110.87234,7.99395097 110.744681,7.78892073 L110.06383,6.53677173 C111.255319,5.35052531 112.539007,4.46450175 113.914894,3.87870105 C115.29078,3.29290035 116.815603,3 118.489362,3 C119.695035,3 120.765957,3.20503025 121.702128,3.61509074 C122.638298,4.02515123 123.425532,4.59630691 124.06383,5.32855778 C124.702128,6.06080866 125.184397,6.94683222 125.510638,7.98662846 C125.836879,9.02642471 126,10.1687361 126,11.4135626 L126,25.6485196 L124.319149,25.6485196 C123.950355,25.6485196 123.666667,25.5862783 123.468085,25.4617956 C123.269504,25.337313 123.113475,25.0920089 123,24.7258835 L122.574468,22.617001 C122.007092,23.1588666 121.453901,23.6384909 120.914894,24.0558739 C120.375887,24.4732569 119.808511,24.8247373 119.212766,25.1103152 C118.617021,25.395893 117.98227,25.6155683 117.308511,25.769341 C116.634752,25.9231137 115.886525,26 115.06383,26 Z M116.678414,23 C117.368576,23 118,22.9269933 118.572687,22.7809798 C119.145374,22.6349664 119.685022,22.4236311 120.19163,22.1469741 C120.698238,21.870317 121.182819,21.5398655 121.645374,21.1556196 C122.10793,20.7713737 122.559471,20.3333333 123,19.8414986 L123,15 C121.193833,15.0614793 119.655653,15.2113353 118.385463,15.4495677 C117.115272,15.6878002 116.080029,15.9990394 115.279736,16.3832853 C114.479442,16.7675312 113.899413,17.2209414 113.539648,17.7435159 C113.179883,18.2660903 113,18.8501441 113,19.4956772 C113,20.1104707 113.095448,20.6407301 113.286344,21.0864553 C113.477239,21.5321806 113.737885,21.8972142 114.068282,22.1815562 C114.398678,22.4658982 114.787812,22.673391 115.235683,22.8040346 C115.683554,22.9346782 116.164464,23 116.678414,23 Z M142.778319,26 C141.389769,26 140.099878,25.7427293 138.908648,25.2281879 C137.717418,24.7136465 136.683313,23.9675615 135.806334,22.9899329 C134.929354,22.0123043 134.242387,20.8104826 133.745432,19.3844679 C133.248477,17.9584532 133,16.3339725 133,14.5110259 C133,12.8497923 133.230207,11.3135187 133.690621,9.90220518 C134.151035,8.49089166 134.823386,7.27436881 135.707674,6.25263663 C136.591961,5.23090444 137.680877,4.43336529 138.974421,3.86001918 C140.267966,3.28667306 141.755177,3 143.436054,3 C145,3 146.377588,3.2535954 147.568819,3.76078619 C148.760049,4.26797699 149.816078,4.98465964 150.736906,5.91083413 L149.706456,7.32214765 C149.589525,7.48386066 149.472594,7.60882071 149.355664,7.6970278 C149.238733,7.7852349 149.077954,7.82933845 148.873325,7.82933845 C148.65408,7.82933845 148.412911,7.73745606 148.149817,7.55369128 C147.886724,7.36992649 147.56151,7.16778523 147.174178,6.9472675 C146.786845,6.72674976 146.311815,6.5246085 145.749086,6.34084372 C145.186358,6.15707894 144.495737,6.06519655 143.677223,6.06519655 C142.580999,6.06519655 141.616322,6.25998722 140.783191,6.64956855 C139.950061,7.03914989 139.252132,7.60147012 138.689403,8.33652924 C138.126675,9.07158837 137.702801,9.96100991 137.417783,11.0047939 C137.132765,12.0485778 136.990256,13.2173218 136.990256,14.5110259 C136.990256,15.8635347 137.143727,17.0653563 137.45067,18.1164909 C137.757613,19.1676254 138.192448,20.0496964 138.755177,20.7627037 C139.317905,21.4757111 139.997564,22.0196548 140.794153,22.394535 C141.590743,22.7694151 142.485993,22.9568552 143.479903,22.9568552 C144.429963,22.9568552 145.211937,22.8429211 145.825822,22.6150527 C146.439708,22.3871844 146.947625,22.133589 147.349574,21.8542665 C147.751523,21.5749441 148.087698,21.3213487 148.3581,21.0934803 C148.628502,20.865612 148.89525,20.7516779 149.158343,20.7516779 C149.479903,20.7516779 149.72838,20.8766379 149.903776,21.126558 L151,22.5599233 C150.517661,23.1626718 149.969549,23.6772132 149.355664,24.1035475 C148.741778,24.5298818 148.08039,24.8863854 147.371498,25.1730585 C146.662607,25.4597315 145.920828,25.6692234 145.146163,25.801534 C144.371498,25.9338447 143.582217,26 142.778319,26 Z M159.964427,-1 C159.55336,-1 159.16996,-1.07874016 158.814229,-1.23622047 C158.458498,-1.39370079 158.146245,-1.61023622 157.87747,-1.88582677 C157.608696,-2.16141732 157.395257,-2.47637795 157.237154,-2.83070866 C157.079051,-3.18503937 157,-3.56692913 157,-3.97637795 C157,-4.38582677 157.079051,-4.77559055 157.237154,-5.14566929 C157.395257,-5.51574803 157.608696,-5.83858268 157.87747,-6.11417323 C158.146245,-6.38976378 158.458498,-6.60629921 158.814229,-6.76377953 C159.16996,-6.92125984 159.55336,-7 159.964427,-7 C160.375494,-7 160.762846,-6.92125984 161.126482,-6.76377953 C161.490119,-6.60629921 161.810277,-6.38976378 162.086957,-6.11417323 C162.363636,-5.83858268 162.58498,-5.51574803 162.750988,-5.14566929 C162.916996,-4.77559055 163,-4.38582677 163,-3.97637795 C163,-3.56692913 162.916996,-3.18503937 162.750988,-2.83070866 C162.58498,-2.47637795 162.363636,-2.16141732 162.086957,-1.88582677 C161.810277,-1.61023622 161.490119,-1.39370079 161.126482,-1.23622047 C160.762846,-1.07874016 160.375494,-1 159.964427,-1 Z M155.5425,33 C155.0625,33 154.62,32.9636892 154.215,32.8910675 C153.81,32.8184459 153.405,32.7095134 153,32.5642702 L153.1575,30.4727669 C153.1875,30.3420479 153.23625,30.2440087 153.30375,30.1786492 C153.37125,30.1132898 153.465,30.0733479 153.585,30.0588235 C153.705,30.0442992 153.85875,30.0406681 154.04625,30.0479303 C154.23375,30.0551924 154.47,30.0588235 154.755,30.0588235 C155.925,30.0588235 156.7575,29.7937545 157.2525,29.2636166 C157.7475,28.7334786 157.995,27.8801743 157.995,26.7037037 L157.995,3 L162,3 L162,26.7037037 C162,27.5896877 161.88,28.4139434 161.64,29.1764706 C161.4,29.9389978 161.0175,30.6034858 160.4925,31.1699346 C159.9675,31.7363834 159.29625,32.1830065 158.47875,32.5098039 C157.66125,32.8366013 156.6825,33 155.5425,33 Z M175.06383,26 C174.22695,26 173.439716,25.8791786 172.702128,25.6375358 C171.964539,25.395893 171.322695,25.0334288 170.776596,24.5501433 C170.230496,24.0668577 169.797872,23.4554282 169.478723,22.7158548 C169.159574,21.9762814 169,21.1012416 169,20.0907354 C169,19.2120344 169.234043,18.3662846 169.702128,17.5534862 C170.170213,16.7406877 170.929078,16.0194206 171.978723,15.3896848 C173.028369,14.7599491 174.397163,14.2437122 176.085106,13.8409742 C177.77305,13.4382362 179.843972,13.2075772 182.297872,13.1489971 L182.297872,11.4135626 C182.297872,9.68545049 181.93617,8.37838268 181.212766,7.49235912 C180.489362,6.60633556 179.432624,6.16332378 178.042553,6.16332378 C177.106383,6.16332378 176.322695,6.28414518 175.691489,6.52578797 C175.060284,6.76743075 174.514184,7.03836358 174.053191,7.33858644 C173.592199,7.6388093 173.195035,7.90974212 172.861702,8.15138491 C172.528369,8.3930277 172.198582,8.51384909 171.87234,8.51384909 C171.617021,8.51384909 171.397163,8.44428526 171.212766,8.30515759 C171.028369,8.16602993 170.87234,7.99395097 170.744681,7.78892073 L170.06383,6.53677173 C171.255319,5.35052531 172.539007,4.46450175 173.914894,3.87870105 C175.29078,3.29290035 176.815603,3 178.489362,3 C179.695035,3 180.765957,3.20503025 181.702128,3.61509074 C182.638298,4.02515123 183.425532,4.59630691 184.06383,5.32855778 C184.702128,6.06080866 185.184397,6.94683222 185.510638,7.98662846 C185.836879,9.02642471 186,10.1687361 186,11.4135626 L186,25.6485196 L184.319149,25.6485196 C183.950355,25.6485196 183.666667,25.5862783 183.468085,25.4617956 C183.269504,25.337313 183.113475,25.0920089 183,24.7258835 L182.574468,22.617001 C182.007092,23.1588666 181.453901,23.6384909 180.914894,24.0558739 C180.375887,24.4732569 179.808511,24.8247373 179.212766,25.1103152 C178.617021,25.395893 177.98227,25.6155683 177.308511,25.769341 C176.634752,25.9231137 175.886525,26 175.06383,26 Z M175.678414,23 C176.368576,23 177,22.9269933 177.572687,22.7809798 C178.145374,22.6349664 178.685022,22.4236311 179.19163,22.1469741 C179.698238,21.870317 180.182819,21.5398655 180.645374,21.1556196 C181.10793,20.7713737 181.559471,20.3333333 182,19.8414986 L182,15 C180.193833,15.0614793 178.655653,15.2113353 177.385463,15.4495677 C176.115272,15.6878002 175.080029,15.9990394 174.279736,16.3832853 C173.479442,16.7675312 172.899413,17.2209414 172.539648,17.7435159 C172.179883,18.2660903 172,18.8501441 172,19.4956772 C172,20.1104707 172.095448,20.6407301 172.286344,21.0864553 C172.477239,21.5321806 172.737885,21.8972142 173.068282,22.1815562 C173.398678,22.4658982 173.787812,22.673391 174.235683,22.8040346 C174.683554,22.9346782 175.164464,23 175.678414,23 Z M221.7681,59.3552 L230.1091,80.8132 L238.5301,59.3552 L250.5141,59.3552 L227.1931,115.7132 L215.2901,115.7132 L224.3591,93.2832 L209.7831,59.3552 L221.7681,59.3552 Z M184.2012,58.5453 C186.6302,58.5453 192.2982,59.3553 195.2132,63.5653 L195.2132,63.5653 L195.2132,59.3553 L206.3882,59.3553 L206.3882,97.1703 L195.2132,97.1703 L195.2132,92.8783 C192.7842,96.5223 187.1162,97.8983 184.2012,97.8983 C174.5642,97.8983 164.9292,90.3683 164.9292,78.2223 C164.9292,66.0753 174.5642,58.5453 184.2012,58.5453 Z M147.2002,41.3786 C159.9142,41.3786 165.5822,50.5286 165.5822,59.6786 C165.5822,68.9096 159.9142,77.8976 147.2002,77.8976 L147.2002,77.8976 L136.1882,77.8976 L136.1882,97.1706 L124.2852,97.1706 L124.2852,41.3786 Z M186.0632,69.2333 C181.3672,69.2333 176.5892,72.7963 176.5892,78.2223 C176.5892,83.6473 181.3672,87.2103 186.0632,87.2103 C190.6792,87.2103 195.2132,83.8903 195.2132,78.2223 C195.2132,72.5543 190.6792,69.2333 186.0632,69.2333 Z M146.9582,51.8236 L136.1882,51.8236 L136.1882,67.5336 L146.6342,67.5336 C151.2492,67.5336 153.6782,63.3226 153.6782,59.6786 C153.6782,56.1966 151.4112,51.8236 146.9582,51.8236 L146.9582,51.8236 Z M245.3767,8 C275.199389,8 299.3757,32.175659 299.3757,61.998 C299.3757,63.524515 298.138215,64.762 296.6117,64.762 C295.085185,64.762 293.8477,63.524515 293.8477,61.998 C293.8477,35.2287225 272.146392,13.528 245.3767,13.528 C243.850185,13.528 242.6127,12.290515 242.6127,10.764 C242.6127,9.23748495 243.850185,8 245.3767,8 Z M245.3767,25.0781 C265.767048,25.0781 282.2977,41.6084178 282.2977,61.9981 C282.2977,63.524615 281.060215,64.7621 279.5337,64.7621 C278.007185,64.7621 276.7697,63.524615 276.7697,61.9981 C276.7697,44.6614729 262.714043,30.6061 245.3767,30.6061 C243.850185,30.6061 242.6127,29.368615 242.6127,27.8421 C242.6127,26.315585 243.850185,25.0781 245.3767,25.0781 Z M245.3767,42.1562 C256.335356,42.1562 265.2197,51.0398256 265.2197,61.9982 C265.2197,63.524715 263.982215,64.7622 262.4557,64.7622 C260.929185,64.7622 259.6917,63.524715 259.6917,61.9982 C259.6917,54.0929558 253.282426,47.6842 245.3767,47.6842 C243.850185,47.6842 242.6127,46.446715 242.6127,44.9202 C242.6127,43.393685 243.850185,42.1562 245.3767,42.1562 Z"></path>
        </g>
    </g>
</svg>